<?xml version="1.0" encoding="utf-8"?>
<!-- Generator: Adobe Illustrator 27.3.1, SVG Export Plug-In . SVG Version: 6.00 Build 0)  -->
<svg version="1.1" id="Layer_1" xmlns="http://www.w3.org/2000/svg" xmlns:xlink="http://www.w3.org/1999/xlink" x="0px" y="0px"
	 viewBox="0 0 600 600" style="enable-background:new 0 0 600 600;" xml:space="preserve">
<style type="text/css">
	.st0{fill:#BE1E2D;stroke:#BE1E2D;stroke-width:7;stroke-miterlimit:10;}
</style>
<path class="st0" d="M168.74,38.7c-93.47,0-147.44,87.41-150,150c-0.32,7.91-1.84,26.11,6.8,45.7c1.03-0.31,2.06-0.62,3.09-0.95
	c2.28-0.71,4.04,0.11,5.07,1.55c2.26-3.71,8.79-1.59,9.18,3.03c0.05,0.55,0.06,1.09,0.09,1.64c2.06,1.08,3.43,3.29,2.47,5.58
	c0.64,0.77,1.05,1.81,1.04,3.1c-0.03,4.17-0.45,8.31-0.48,12.48c0,0.43-0.05,0.82-0.14,1.19c6.92,6.25,14.4,11.31,21.66,16.09
	c60.02,39.57,90.03,59.36,101.22,60.58c59.95,6.54,150-56.99,150-150C318.74,105.86,251.58,38.7,168.74,38.7z"/>
<path class="st0" d="M580.6,188.7c0,1.35,0.06,4.02-0.07,7.73c-0.72,20.06-5.91,37.24-9.62,45.44
	c-8.36,18.48-25.61,27.15-42.22,36.25c-77.16,42.29-72.84,56.91-98.08,60.58c-56.91,8.27-150-55.72-150-150
	c0-82.84,67.16-150,150-150S580.6,105.86,580.6,188.7z"/>
<path class="st0" d="M300.98,243.16l-228.79,0c0.3,0.11,0.6,0.23,0.89,0.35c5.88,2.42,3.29,12.1-2.66,9.64
	c-6.62-2.73-13.77-3.7-20.79-5.07c0,0,0,0-0.01,0c-0.05,0.36-0.14,0.7-0.26,1.04c-0.08,0.42-0.2,0.83-0.36,1.22
	c0.49,0.23,0.99,0.44,1.5,0.62c3.59,1.26,7.41,1.39,11.17,1.55c6.42,0.28,6.43,10.28,0,10c-4.64-0.2-8.77-0.77-12.66-1.95
	c-1-0.3-2.02,0.43-2.03,1.47c0,0.01,0,0.01,0,0.02c0,0.31-0.03,0.6-0.08,0.88c-0.07,0.41,0.04,0.84,0.29,1.17
	c38.38,51.24,76.77,102.48,115.15,153.72c41.07,51.76,82.15,103.51,123.24,155.27c4.72,5.95,9.44,11.9,14.17,17.84
	c0.63,0.79,1.84,0.79,2.47,0c45.8-57.7,91.6-115.41,137.4-173.11c40.55-53.57,81.1-107.14,121.64-160.71
	c0.03-0.04,0.06-0.09,0.09-0.14c2.33-3.77,4.49-7.68,6.69-11.54c0.6-1.05-0.16-2.35-1.37-2.35
	C478.11,243.11,389.54,243.13,300.98,243.16z"/>
<line class="st0" x1="25.54" y1="234.41" x2="48.96" y2="266.57"/>
<rect x="34.67" y="232.85" transform="matrix(0.5888 0.8083 -0.8083 0.5888 209.9315 63.2833)" class="st0" width="16.2" height="10.23"/>
</svg>
