<?xml version="1.0" encoding="utf-8"?>
<!-- Generator: Adobe Illustrator 27.3.1, SVG Export Plug-In . SVG Version: 6.00 Build 0)  -->
<svg version="1.1" id="Layer_1" xmlns="http://www.w3.org/2000/svg" xmlns:xlink="http://www.w3.org/1999/xlink" x="0px" y="0px"
	 viewBox="0 0 600 600" style="enable-background:new 0 0 600 600;" xml:space="preserve">
<style type="text/css">
	.st0{fill:#47B649;stroke:#231F20;stroke-width:2;stroke-miterlimit:10;}
	.st1{fill:#FFFFFF;stroke:#231F20;stroke-width:2;stroke-miterlimit:10;}
	.st2{fill:#F48274;stroke:#231F20;stroke-width:2;stroke-miterlimit:10;}
	.st3{fill:#CB3E96;stroke:#231F20;stroke-width:2;stroke-miterlimit:10;}
	.st4{fill:#C23293;stroke:#231F20;stroke-width:2;stroke-miterlimit:10;}
	.st5{fill:#ED1C3B;stroke:#231F20;stroke-width:2;stroke-miterlimit:10;}
</style>
<path class="st0" d="M437.03,361.1c-5.12,11.46-11.63,22.16-19.34,31.88l51.92,44.26l-58.82-36.12
	c-8.02,8.78-17.07,16.61-26.96,23.28l37.52,61.1l-47.04-55.18c-9.79,5.6-20.28,10.13-31.3,13.42l17.53,72.74l-28.85-69.83
	C321.47,448.84,310.87,450,300,450h-0.86l-6,77.16l-6.04-77.71c-10.76-0.91-21.2-2.97-31.19-6.04l-30.18,73.07l18.6-77.16
	c-9.76-3.9-19.01-8.79-27.63-14.57l-51.78,60.75l41.79-68.05c-8.16-6.48-15.63-13.8-22.28-21.83l-67.77,41.62l60.31-51.41
	c-6.02-8.62-11.17-17.9-15.29-27.72l-76,18.32l71.76-29.64c-3.34-10.19-5.62-20.86-6.71-31.88L75,309.02l75.04-5.83
	c-0.03-1.06-0.04-2.12-0.04-3.19c0-10.46,1.07-20.67,3.11-30.53l-67.43-27.86l70.13,16.91c3.3-11.5,7.95-22.44,13.75-32.62
	l-52.9-45.1l58.55,35.96c6.89-10.32,15.03-19.74,24.21-28.03l-34.5-56.18l42.29,49.6c10.09-7.96,21.22-14.65,33.17-19.83
	l-14.65-60.76l23.63,57.2c12.38-4.43,25.51-7.29,39.15-8.32l4.63-59.56l4.6,59.14c0.75-0.01,1.51-0.02,2.26-0.02
	c13.3,0,26.19,1.73,38.47,4.98l22.07-53.42l-13.49,55.97c13.37,4.41,25.9,10.65,37.3,18.43l37-43.41l-29.84,48.6
	c11.04,8.5,20.85,18.51,29.14,29.72l48.96-30.07l-43.87,37.39c7.45,11.43,13.39,23.94,17.53,37.24l57.33-13.82l-54.88,22.67
	c2.8,11.44,4.28,23.41,4.28,35.72c0,1.42-0.02,2.84-0.06,4.25l61.33,4.77l-61.9,4.81c-1.21,13.21-4.13,25.92-8.53,37.91l59.76,24.69
	L437.03,361.1z"/>
<ellipse class="st1" cx="247.5" cy="239.5" rx="29.5" ry="19.5"/>
<ellipse class="st1" cx="355" cy="239.5" rx="29.5" ry="19.5"/>
<ellipse class="st2" cx="300.45" cy="358" rx="52.95" ry="35"/>
<circle class="st3" cx="232" cy="231.75" r="7.75"/>
<circle class="st4" cx="362.75" cy="247.25" r="7.75"/>
<circle class="st5" cx="400" cy="300" r="7.75"/>
<circle class="st5" cx="200" cy="350.25" r="7.75"/>
<circle class="st5" cx="317.75" cy="275.5" r="7.75"/>
<circle class="st5" cx="355" cy="411" r="7.75"/>
<circle class="st5" cx="277" cy="184" r="7.75"/>
<path class="st5" d="M255.3,358c10.57,17.24,7.5,22.05,11.57,4.98c4.07-17.07-7.86-34.64,4.07-17.07
	c11.93,17.57-3.21,37.2,11.93,17.57c15.14-19.63,14.25-44.3,15.14-19.63c1.86,51.63-8.03,43.15,9.86,22.63
	c14.77-16.94,15.66-33.64,17.33-14.32c1.67,19.32-10.95,25.32,1.67,19.32c12.62-6,27.24-25,12.62-6"/>
</svg>
